# xmcd CD database file
#
# Track frame offsets:
#	150
#	27600
#	44850
#	56550
#	68775
#	82200
#	94425
#	111300
#	132187
#	146325
#	168600
#	184050
#	204450
#	217987
#	230400
#	239175
#
# Disc length: 3460 seconds
#
# Revision: 5
# Processed by: cddbd v1.5.1PL0 Copyright (c) Steve Scherf et al.
# Submitted via: CDex 1.51
#
DISCID=fe0d8210
DTITLE=Gilberto Gil - Personalidade
DYEAR=1987
DGENRE=MPB
TTITLE0=Oriente
TTITLE1=Louvação
TTITLE2=Bate Macumba
TTITLE3=Procissão
TTITLE4=Domingou
TTITLE5=Expresso 2222
TTITLE6=Domingo no Parque
TTITLE7=Aquele Abraço
TTITLE8=Lunik 9
TTITLE9=Só Quero um Xodó
TTITLE10=Chiclete com Banana
TTITLE11=Preciso Aprender a Só Ser
TTITLE12=Maracatu Atômico
TTITLE13=Roda
TTITLE14=Frevo Rasgado
TTITLE15=Back in Bahia
EXTD=YEAR: 1987
EXTT0=
EXTT1=
EXTT2=
EXTT3=
EXTT4=
EXTT5=
EXTT6=
EXTT7=
EXTT8=
EXTT9=
EXTT10=
EXTT11=
EXTT12=
EXTT13=
EXTT14=
EXTT15=
PLAYORDER=
